<?xml version="1.0" standalone="yes"?>

<svg version="1.1" viewBox="0.0 0.0 100.0 100.0" fill="none" stroke="none" stroke-linecap="square" stroke-miterlimit="10" xmlns="http://www.w3.org/2000/svg" xmlns:xlink="http://www.w3.org/1999/xlink"><clipPath id="p.0"><path d="m0 0l100.0 0l0 100.0l-100.0 0l0 -100.0z" clip-rule="nonzero"></path></clipPath><g clip-path="url(#p.0)"><path fill="#000000" fill-opacity="0.0" d="m0 0l100.0 0l0 100.0l-100.0 0z" fill-rule="nonzero"></path><path fill="#000000" fill-opacity="0.0" d="m28.351706 25.784777l32.0 0l0 32.0l-32.0 0z" fill-rule="nonzero"></path><path fill="#ffffff" d="m43.461082 39.18915l1.71875 0l0 9.578125q0 1.9375 -1.0 3.03125q-0.984375 1.09375 -2.65625 1.09375q-1.71875 0 -2.671875 -1.03125q-0.953125 -1.046875 -0.953125 -2.890625l1.703125 0q0 1.171875 0.5 1.828125q0.515625 0.640625 1.421875 0.640625q0.890625 0 1.40625 -0.703125q0.53125 -0.71875 0.53125 -1.984375l0 -9.5625z" fill-rule="nonzero"></path><path fill="#000000" fill-opacity="0.0" d="m33.664043 49.304462l0 0c0 -8.097279 6.48658 -14.661419 14.488186 -14.661419l0 0c3.8425064 0 7.5276375 1.5446815 10.244698 4.2942314c2.717064 2.7495499 4.243492 6.478737 4.243492 10.3671875l0 0c0 8.097279 -6.4865837 14.661415 -14.48819 14.661415l0 0c-8.001606 0 -14.488186 -6.5641365 -14.488186 -14.661415z" fill-rule="nonzero"></path><path stroke="#ffffff" stroke-width="2.0" stroke-linejoin="round" stroke-linecap="butt" d="m33.664043 49.304462l0 0c0 -8.097279 6.48658 -14.661419 14.488186 -14.661419l0 0c3.8425064 0 7.5276375 1.5446815 10.244698 4.2942314c2.717064 2.7495499 4.243492 6.478737 4.243492 10.3671875l0 0c0 8.097279 -6.4865837 14.661415 -14.48819 14.661415l0 0c-8.001606 0 -14.488186 -6.5641365 -14.488186 -14.661415z" fill-rule="nonzero"></path><path fill="#000000" fill-opacity="0.0" d="m36.706036 30.88189l24.0 0l0 25.19685l-24.0 0z" fill-rule="nonzero"></path><path fill="#ffffff" d="m51.237286 52.333138l-2.375 0l0 5.46875l-1.703125 0l0 -13.515625l3.78125 0q2.0 0 3.015625 1.046875q1.015625 1.03125 1.015625 3.03125q0 1.25 -0.546875 2.1875q-0.546875 0.921875 -1.5625 1.390625l2.609375 5.75l0 0.109375l-1.828125 0l-2.40625 -5.46875zm-2.375 -1.453125l2.0625 0q1.078125 0 1.703125 -0.6875q0.640625 -0.6875 0.640625 -1.828125q0 -2.609375 -2.359375 -2.609375l-2.046875 0l0 5.125z" fill-rule="nonzero"></path></g></svg>

